# xmcd
# Track frame offsets:
# 150
# 13216
# 32031
# 48639
# 62421
# 76034
# 82682
# 94569
# 107494
# 117101
# 135359
# 152384
# 167192
# 178739
# 189976
# 214143
# 226755
# 238954
# 248672
# 260344
#
# Disc length: 3656 seconds
# Revision: 0
# Processed by: cddbd v1.5PL3 Copyright (c) Steve Scherf et al.
# Submitted via: VisiTrax 2.9.9.202 - For more info visit www.synapsa.com
#
DISCID=ee0e4614
DTITLE=Johnny Cash - The Man In black  - the very best of - cd2
DYEAR=2001
DGENRE=country
TTITLE0=Man in Black
TTITLE1=Sunday Morning Coming Down
TTITLE2=Johnny Cash - Very Best Of - Man In Black - Cd 2 - 03 - The Girl Fro
TTITLE2=m North Country
TTITLE3=It Ain't Me Babe
TTITLE4=If I Were a Carpenter
TTITLE5=Busted [Live]
TTITLE6=Flesh and Blood
TTITLE7=Wanted Man
TTITLE8=What on Earth Will You Do (For
TTITLE9=One Piece at a Time
TTITLE10=(Ghost) Riders in the Sky
TTITLE11=There Ain't No Good Chain Gang
TTITLE12=A Thing Called Love
TTITLE13=Without Love
TTITLE14=Highway Patrolman
TTITLE15=The Beast in Me
TTITLE16=Sea of Heartbreak
TTITLE17=I Won't Back Down
TTITLE18=Wayfaring Stranger
TTITLE19=Me and Bobby McGee [Live from Österåker] [#]
EXTD=
EXTT0=
EXTT1=
EXTT2=
EXTT3=
EXTT4=
EXTT5=
EXTT6=
EXTT7=
EXTT8=
EXTT9=
EXTT10=
EXTT11=
EXTT12=
EXTT13=
EXTT14=
EXTT15=
EXTT16=
EXTT17=
EXTT18=
EXTT19=
PLAYORDER=
